<svg width="1280" height="720" xmlns="http://www.w3.org/2000/svg" xmlns:xlink="http://www.w3.org/1999/xlink" overflow="hidden"><defs><clipPath id="clip0"><rect x="0" y="0" width="1280" height="720"/></clipPath><linearGradient x1="601" y1="100.5" x2="601" y2="112.5" gradientUnits="userSpaceOnUse" spreadMethod="reflect" id="fill1"><stop offset="0" stop-color="#B5D5A7"/><stop offset="0.5" stop-color="#AACE99"/><stop offset="1" stop-color="#9CCA86"/></linearGradient><linearGradient x1="275.5" y1="129.5" x2="293.5" y2="129.5" gradientUnits="userSpaceOnUse" spreadMethod="reflect" id="fill2"><stop offset="0" stop-color="#B5D5A7"/><stop offset="0.5" stop-color="#AACE99"/><stop offset="1" stop-color="#9CCA86"/></linearGradient><linearGradient x1="384.5" y1="130" x2="402.5" y2="130" gradientUnits="userSpaceOnUse" spreadMethod="reflect" id="fill3"><stop offset="0" stop-color="#B5D5A7"/><stop offset="0.5" stop-color="#AACE99"/><stop offset="1" stop-color="#9CCA86"/></linearGradient><linearGradient x1="493.5" y1="130" x2="511.5" y2="130" gradientUnits="userSpaceOnUse" spreadMethod="reflect" id="fill4"><stop offset="0" stop-color="#B5D5A7"/><stop offset="0.5" stop-color="#AACE99"/><stop offset="1" stop-color="#9CCA86"/></linearGradient><linearGradient x1="604.5" y1="130" x2="622.5" y2="130" gradientUnits="userSpaceOnUse" spreadMethod="reflect" id="fill5"><stop offset="0" stop-color="#B5D5A7"/><stop offset="0.5" stop-color="#AACE99"/><stop offset="1" stop-color="#9CCA86"/></linearGradient><linearGradient x1="708.5" y1="130" x2="727.5" y2="130" gradientUnits="userSpaceOnUse" spreadMethod="reflect" id="fill6"><stop offset="0" stop-color="#B5D5A7"/><stop offset="0.5" stop-color="#AACE99"/><stop offset="1" stop-color="#9CCA86"/></linearGradient><linearGradient x1="822.5" y1="129.5" x2="840.5" y2="129.5" gradientUnits="userSpaceOnUse" spreadMethod="reflect" id="fill7"><stop offset="0" stop-color="#B5D5A7"/><stop offset="0.5" stop-color="#AACE99"/><stop offset="1" stop-color="#9CCA86"/></linearGradient><linearGradient x1="285" y1="203.5" x2="285" y2="221.5" gradientUnits="userSpaceOnUse" spreadMethod="reflect" id="fill8"><stop offset="0" stop-color="#9B9B9B"/><stop offset="0.5" stop-color="#8E8E8E"/><stop offset="1" stop-color="#797979"/></linearGradient><linearGradient x1="399" y1="203.5" x2="399" y2="220.5" gradientUnits="userSpaceOnUse" spreadMethod="reflect" id="fill9"><stop offset="0" stop-color="#9B9B9B"/><stop offset="0.5" stop-color="#8E8E8E"/><stop offset="1" stop-color="#797979"/></linearGradient><linearGradient x1="508" y1="203.5" x2="508" y2="221.5" gradientUnits="userSpaceOnUse" spreadMethod="reflect" id="fill10"><stop offset="0" stop-color="#9B9B9B"/><stop offset="0.5" stop-color="#8E8E8E"/><stop offset="1" stop-color="#797979"/></linearGradient><linearGradient x1="618" y1="202.5" x2="618" y2="220.5" gradientUnits="userSpaceOnUse" spreadMethod="reflect" id="fill11"><stop offset="0" stop-color="#9B9B9B"/><stop offset="0.5" stop-color="#8E8E8E"/><stop offset="1" stop-color="#797979"/></linearGradient><linearGradient x1="727.5" y1="202.5" x2="727.5" y2="220.5" gradientUnits="userSpaceOnUse" spreadMethod="reflect" id="fill12"><stop offset="0" stop-color="#9B9B9B"/><stop offset="0.5" stop-color="#8E8E8E"/><stop offset="1" stop-color="#797979"/></linearGradient><linearGradient x1="998" y1="249.5" x2="998" y2="267.5" gradientUnits="userSpaceOnUse" spreadMethod="reflect" id="fill13"><stop offset="0" stop-color="#9B9B9B"/><stop offset="0.5" stop-color="#8E8E8E"/><stop offset="1" stop-color="#797979"/></linearGradient><linearGradient x1="868" y1="201.5" x2="868" y2="219.5" gradientUnits="userSpaceOnUse" spreadMethod="reflect" id="fill14"><stop offset="0" stop-color="#9B9B9B"/><stop offset="0.5" stop-color="#8E8E8E"/><stop offset="1" stop-color="#797979"/></linearGradient><linearGradient x1="938.5" y1="277" x2="918.5" y2="277" gradientUnits="userSpaceOnUse" spreadMethod="reflect" id="fill15"><stop offset="0" stop-color="#B5D5A7"/><stop offset="0.5" stop-color="#AACE99"/><stop offset="1" stop-color="#9CCA86"/></linearGradient><linearGradient x1="888.5" y1="129" x2="907.5" y2="129" gradientUnits="userSpaceOnUse" spreadMethod="reflect" id="fill16"><stop offset="0" stop-color="#B5D5A7"/><stop offset="0.5" stop-color="#AACE99"/><stop offset="1" stop-color="#9CCA86"/></linearGradient></defs><g clip-path="url(#clip0)"><rect x="0" y="0" width="1280" height="720" fill="#FFFFFF"/><path d="M0 0.666667-5.33333 0.666667-5.33333-0.666667 0-0.666667ZM-9.33333 0.666667-14.6667 0.666667-14.6667-0.666667-9.33333-0.666667ZM-18.6667 0.666667-24 0.666667-24-0.666667-18.6667-0.666667ZM-28 0.666667-28.4272 0.666667-27.7606 0-27.7606 4.90611-29.0939 4.90611-29.0939-0.666667-28-0.666667ZM-27.7606 8.90611-27.7606 14.2394-29.0939 14.2394-29.0939 8.90611ZM-27.7606 18.2394-27.7606 23.5728-29.0939 23.5728-29.0939 18.2394ZM-27.7606 27.5728-27.7606 32.9061-29.0939 32.9061-29.0939 27.5728ZM-27.7606 36.9061-27.7606 42.2394-29.0939 42.2394-29.0939 36.9061ZM-27.7606 46.2394-27.7606 51.5728-29.0939 51.5728-29.0939 46.2394ZM-27.7606 55.5728-27.7606 60.9061-29.0939 60.9061-29.0939 55.5728ZM-27.7606 64.9061-27.7606 70.2394-29.0939 70.2394-29.0939 64.9061ZM-27.7606 74.2394-27.7606 79.5728-29.0939 79.5728-29.0939 74.2394ZM-27.7606 83.5728-27.7606 88.9061-29.0939 88.9061-29.0939 83.5728ZM-27.7606 92.9061-27.7606 98.2394-29.0939 98.2394-29.0939 92.9061ZM-27.7606 102.239-27.7606 107.573-29.0939 107.573-29.0939 102.239ZM-27.7606 111.573-27.7606 116.906-29.0939 116.906-29.0939 111.573ZM-27.7606 120.906-27.7606 126.239-29.0939 126.239-29.0939 120.906ZM-27.7606 130.239-27.7606 135.573-29.0939 135.573-29.0939 130.239ZM-27.7606 139.573-27.7606 144.906-29.0939 144.906-29.0939 139.573ZM-27.7606 148.906-27.7606 154.239-29.0939 154.239-29.0939 148.906ZM-27.7606 158.239-27.7606 163.573-29.0939 163.573-29.0939 158.239ZM-27.7606 167.573-27.7606 172.906-29.0939 172.906-29.0939 167.573ZM-27.7606 176.906-27.7606 182.239-29.0939 182.239-29.0939 176.906ZM-27.7606 186.239-27.7606 191.573-29.0939 191.573-29.0939 186.239ZM-27.7606 195.573-27.7606 200.906-29.0939 200.906-29.0939 195.573ZM-27.7606 204.906-27.7606 210.239-29.0939 210.239-29.0939 204.906ZM-27.7606 214.239-27.7606 219.573-29.0939 219.573-29.0939 214.239ZM-27.7606 223.573-27.7606 228.906-29.0939 228.906-29.0939 223.573ZM-27.7606 232.906-27.7606 238.239-29.0939 238.239-29.0939 232.906ZM-27.7606 242.239-27.7606 247.573-29.0939 247.573-29.0939 242.239ZM-27.7606 251.573-27.7606 256.906-29.0939 256.906-29.0939 251.573ZM-27.7606 260.906-27.7606 266.239-29.0939 266.239-29.0939 260.906ZM-27.7606 270.239-27.7606 275.573-29.0939 275.573-29.0939 270.239ZM-27.7606 279.573-27.7606 284.906-29.0939 284.906-29.0939 279.573ZM-27.7606 288.906-27.7606 294.239-29.0939 294.239-29.0939 288.906ZM-27.7606 298.239-27.7606 303.573-29.0939 303.573-29.0939 298.239ZM-27.7606 307.573-27.7606 312.906-29.0939 312.906-29.0939 307.573ZM-27.7606 316.906-27.7606 322.239-29.0939 322.239-29.0939 316.906ZM-27.7606 326.239-27.7606 331.573-29.0939 331.573-29.0939 326.239ZM-27.7606 335.573-27.7606 340.906-29.0939 340.906-29.0939 335.573ZM-27.7606 344.906-27.7606 350.239-29.0939 350.239-29.0939 344.906ZM-27.7606 354.239-27.7606 359.573-29.0939 359.573-29.0939 354.239ZM-27.7606 363.573-27.7606 368.906-29.0939 368.906-29.0939 363.573ZM-27.7606 372.906-27.7606 378.239-29.0939 378.239-29.0939 372.906ZM-27.7606 382.239-27.7606 387.573-29.0939 387.573-29.0939 382.239ZM-27.7606 391.573-27.7606 396.906-29.0939 396.906-29.0939 391.573ZM-27.7606 400.906-27.7606 406.239-29.0939 406.239-29.0939 400.906ZM-27.7606 410.239-27.7606 415.573-29.0939 415.573-29.0939 410.239ZM-27.7606 419.573-27.7606 424.906-29.0939 424.906-29.0939 419.573ZM-27.7606 428.906-27.7606 434.239-29.0939 434.239-29.0939 428.906ZM-27.7606 438.239-27.7606 443.573-29.0939 443.573-29.0939 438.239ZM-27.7606 447.573-27.7606 452.906-29.0939 452.906-29.0939 447.573ZM-27.7606 456.906-27.7606 462.239-29.0939 462.239-29.0939 456.906ZM-27.7606 466.239-27.7606 471.573-29.0939 471.573-29.0939 466.239ZM-27.7606 475.573-27.7606 480.906-29.0939 480.906-29.0939 475.573ZM-27.7606 484.906-27.7606 490.239-29.0939 490.239-29.0939 484.906ZM-27.7606 494.239-27.7606 499.573-29.0939 499.573-29.0939 494.239ZM-27.7606 503.573-27.7606 508.906-29.0939 508.906-29.0939 503.573ZM-27.7606 512.906-27.7606 518.239-29.0939 518.239-29.0939 512.906ZM-27.7606 522.239-27.7606 527.573-29.0939 527.573-29.0939 522.239ZM-27.7606 531.573-27.7606 536.906-29.0939 536.906-29.0939 531.573ZM-27.7606 540.906-27.7606 546.239-29.0939 546.239-29.0939 540.906ZM-27.7606 550.239-27.7606 554.073-28.4272 553.406-26.9274 553.406-26.9274 554.74-29.0939 554.74-29.0939 550.239ZM-22.9274 553.406-17.5941 553.406-17.5941 554.74-22.9274 554.74ZM-13.5941 553.406-8.26077 553.406-8.26077 554.74-13.5941 554.74ZM-4.26077 553.406 1.07257 553.406 1.07257 554.74-4.26077 554.74ZM5.07257 553.406 10.4059 553.406 10.4059 554.74 5.07257 554.74ZM14.4059 553.406 19.7392 553.406 19.7392 554.74 14.4059 554.74ZM23.7392 553.406 29.0726 553.406 29.0726 554.74 23.7392 554.74ZM33.0726 553.406 38.4059 553.406 38.4059 554.74 33.0726 554.74ZM42.4059 553.406 47.7392 553.406 47.7392 554.74 42.4059 554.74ZM51.7392 553.406 57.0726 553.406 57.0726 554.74 51.7392 554.74ZM61.0726 553.406 66.4059 553.406 66.4059 554.74 61.0726 554.74ZM70.4059 553.406 75.7392 553.406 75.7392 554.74 70.4059 554.74ZM79.7392 553.406 85.0726 553.406 85.0726 554.74 79.7392 554.74ZM89.0726 553.406 94.4059 553.406 94.4059 554.74 89.0726 554.74ZM98.4059 553.406 103.739 553.406 103.739 554.74 98.4059 554.74ZM107.739 553.406 113.073 553.406 113.073 554.74 107.739 554.74ZM117.073 553.406 122.406 553.406 122.406 554.74 117.073 554.74ZM126.406 553.406 131.739 553.406 131.739 554.74 126.406 554.74ZM133.464 550.073 141.464 554.073 133.464 558.073Z" fill="#4472C4" transform="matrix(-1 0 0 1 887.964 61.5001)"/><rect x="268.5" y="100.5" width="665" height="12" stroke="#70AD47" stroke-width="0.666667" stroke-miterlimit="8" fill="url(#fill1)"/><text font-family="Calibri,Calibri_MSFontService,sans-serif" font-weight="400" font-size="9" transform="translate(575.698 110)">Force Accept</text><path d="M969.5 98.0001C969.5 88.3351 1012.26 80.5001 1065 80.5001 1117.74 80.5001 1160.5 88.3351 1160.5 98.0001L1160.5 168C1160.5 177.665 1117.74 185.5 1065 185.5 1012.26 185.5 969.5 177.665 969.5 168Z" fill="#A5A5A5" fill-rule="evenodd"/><path d="M1160.5 98.0001C1160.5 107.665 1117.74 115.5 1065 115.5 1012.26 115.5 969.5 107.665 969.5 98.0001" stroke="#787878" stroke-width="1.33333" stroke-miterlimit="8" fill="none" fill-rule="evenodd"/><path d="M969.5 98.0001C969.5 88.3351 1012.26 80.5001 1065 80.5001 1117.74 80.5001 1160.5 88.3351 1160.5 98.0001L1160.5 168C1160.5 177.665 1117.74 185.5 1065 185.5 1012.26 185.5 969.5 177.665 969.5 168Z" stroke="#787878" stroke-width="1.33333" stroke-miterlimit="8" fill="none" fill-rule="evenodd"/><text fill="#FFFFFF" font-family="Calibri,Calibri_MSFontService,sans-serif" font-weight="400" font-size="15" transform="translate(1039.44 138)">Working<tspan font-size="15" x="8" y="17">queue</tspan></text><rect x="954.5" y="100.5" width="27" height="73" stroke="#C00000" stroke-width="1.33333" stroke-miterlimit="8" fill="#FF0000"/><text fill="#FFFFFF" font-family="Calibri,Calibri_MSFontService,sans-serif" font-weight="400" font-size="8" transform="matrix(6.12323e-17 1 -1 6.12323e-17 970.239 126)">Accept<tspan font-size="8" x="-12" y="10">Commit write</tspan></text><path d="M1136.5 127.8C1136.5 129.07 1141.09 130.1 1146.75 130.1 1152.41 130.1 1157 129.07 1157 127.8 1157 126.53 1161.59 125.5 1167.25 125.5 1172.91 125.5 1177.5 126.53 1177.5 127.8L1177.5 146.2C1177.5 144.93 1172.91 143.9 1167.25 143.9 1161.59 143.9 1157 144.93 1157 146.2 1157 147.47 1152.41 148.5 1146.75 148.5 1141.09 148.5 1136.5 147.47 1136.5 146.2Z" stroke="#333F50" stroke-width="1.33333" stroke-miterlimit="8" fill="#8497B0" fill-rule="evenodd"/><text fill="#FFFFFF" font-family="Calibri,Calibri_MSFontService,sans-serif" font-weight="400" font-size="8" transform="translate(1148.41 138)">JSON</text><path d="M789.167 306.5 789.167 311.833 787.833 311.833 787.833 306.5ZM789.167 315.833 789.167 321.167 787.833 321.167 787.833 315.833ZM789.167 325.167 789.167 330.5 787.833 330.5 787.833 325.167ZM789.167 334.5 789.167 339.833 787.833 339.833 787.833 334.5ZM789.167 343.833 789.167 349.167 787.833 349.167 787.833 343.833ZM789.167 353.167 789.167 358.5 787.833 358.5 787.833 353.167ZM789.167 362.5 789.167 363.27 787.833 363.27 787.833 362.5ZM792.5 361.937 788.5 369.937 784.5 361.937Z" fill="#ED7D31"/><path d="M0-1.33333 202.462-1.33333 202.462 11.475 199.795 11.475 199.795 0 201.128 1.33333 0 1.33333ZM205.128 10.1416 201.128 18.1416 197.128 10.1416Z" fill="#ED7D31" transform="matrix(-1 1.22465e-16 1.22465e-16 1 989.628 233.5)"/><path d="M697.5 472.167C697.5 462.41 784.805 454.5 892.5 454.5 1000.2 454.5 1087.5 462.41 1087.5 472.167L1087.5 542.833C1087.5 552.59 1000.2 560.5 892.5 560.5 784.805 560.5 697.5 552.59 697.5 542.833Z" fill="#A5A5A5" fill-rule="evenodd"/><path d="M1087.5 472.167C1087.5 481.924 1000.2 489.833 892.5 489.833 784.805 489.833 697.5 481.924 697.5 472.167" stroke="#787878" stroke-width="1.33333" stroke-miterlimit="8" fill="none" fill-rule="evenodd"/><path d="M697.5 472.167C697.5 462.41 784.805 454.5 892.5 454.5 1000.2 454.5 1087.5 462.41 1087.5 472.167L1087.5 542.833C1087.5 552.59 1000.2 560.5 892.5 560.5 784.805 560.5 697.5 552.59 697.5 542.833Z" stroke="#787878" stroke-width="1.33333" stroke-miterlimit="8" fill="none" fill-rule="evenodd"/><text fill="#FFFFFF" font-family="Calibri,Calibri_MSFontService,sans-serif" font-weight="400" font-size="15" transform="translate(850.198 521)">Deliver queue</text><path d="M516.5 185.167 790.159 185.167 790.159 244.557 787.492 244.557 787.492 186.5 788.826 187.833 516.5 187.833ZM792.826 243.224 788.826 251.224 784.826 243.224Z" fill="#ED7D31"/><path d="M407.5 491.333C407.5 488.664 422.499 486.5 441 486.5 459.502 486.5 474.5 488.664 474.5 491.333L474.5 510.667C474.5 513.336 459.502 515.5 441 515.5 422.499 515.5 407.5 513.336 407.5 510.667Z" fill="#FFFFFF" fill-rule="evenodd"/><path d="M474.5 491.333C474.5 494.003 459.502 496.167 441 496.167 422.499 496.167 407.5 494.003 407.5 491.333" stroke="#000000" stroke-width="1.33333" stroke-miterlimit="8" fill="none" fill-rule="evenodd"/><path d="M407.5 491.333C407.5 488.664 422.499 486.5 441 486.5 459.502 486.5 474.5 488.664 474.5 491.333L474.5 510.667C474.5 513.336 459.502 515.5 441 515.5 422.499 515.5 407.5 513.336 407.5 510.667Z" stroke="#000000" stroke-width="1.33333" stroke-miterlimit="8" fill="none" fill-rule="evenodd"/><text font-family="Calibri,Calibri_MSFontService,sans-serif" font-weight="400" font-size="9" transform="translate(430.749 506)">Local</text><path d="M247.049 448.107C245.431 438.095 253.759 428.875 265.65 427.513 270.468 426.961 275.367 427.786 279.563 429.856 284.009 422.8 294.397 420.118 302.767 423.866 304.23 424.522 305.573 425.352 306.754 426.332 310.217 420.484 318.65 418.107 325.592 421.025 327.513 421.832 329.188 423 330.49 424.439 336.071 418.908 345.933 418.224 352.517 422.913 355.284 424.883 357.149 427.601 357.792 430.6 366.936 432.701 372.33 440.659 369.84 448.374 369.631 449.023 369.369 449.659 369.055 450.276 376.388 458.316 374.593 469.839 365.045 476.013 362.073 477.935 358.562 479.18 354.852 479.626 354.77 488.276 346.369 495.231 336.09 495.161 332.655 495.138 329.295 494.316 326.382 492.786 322.905 502.483 310.777 507.963 299.293 505.027 294.48 503.797 290.322 501.195 287.527 497.665 275.77 503.637 260.508 500.424 253.441 490.49 253.351 490.364 253.264 490.238 253.178 490.112 245.483 490.87 238.513 486.246 237.61 479.784 237.128 476.34 238.478 472.892 241.301 470.36 234.638 467.057 232.4 459.807 236.302 454.167 238.553 450.913 242.501 448.762 246.932 448.375Z" stroke="#000000" stroke-width="1.33333" stroke-miterlimit="8" fill="#FFFFFF" fill-rule="evenodd"/><path d="M249.6 471.612C246.756 471.799 243.912 471.246 241.45 470.025M256.792 488.975C255.648 489.358 254.449 489.614 253.225 489.734M287.52 497.318C286.659 496.231 285.939 495.07 285.371 493.854M327.254 488.68C327.127 489.969 326.839 491.243 326.396 492.481M344.313 465.196C350.763 467.839 354.833 473.365 354.775 479.401M368.989 450.066C367.945 452.121 366.35 453.944 364.331 455.392M357.811 430.302C357.989 431.132 358.071 431.974 358.057 432.817M328.061 427.367C328.668 426.207 329.472 425.126 330.448 424.159M305.741 428.896C305.988 427.937 306.377 427.008 306.897 426.13M279.546 429.836C281.064 430.585 282.469 431.486 283.729 432.52M247.779 450.932C247.448 450.008 247.204 449.064 247.049 448.108" stroke="#000000" stroke-width="1.33333" stroke-miterlimit="8" fill="none" fill-rule="evenodd"/><text font-family="Calibri,Calibri_MSFontService,sans-serif" font-weight="400" font-size="9" transform="translate(277.179 464)">Other MTA</text><rect x="217.5" y="40.5001" width="670" height="41" stroke="#2F528F" stroke-width="1.33333" stroke-miterlimit="8" fill="#4472C4"/><text fill="#FFFFFF" font-family="Calibri,Calibri_MSFontService,sans-serif" font-weight="400" font-size="24" transform="translate(481.004 68)">vserver<tspan font-size="24" x="77.0467" y="0">thread</tspan></text><rect x="218.5" y="143.5" width="79" height="31" stroke="#2F528F" stroke-width="1.33333" stroke-miterlimit="8" fill="#4472C4"/><text fill="#FFFFFF" font-family="Calibri,Calibri_MSFontService,sans-serif" font-weight="400" font-size="16" transform="translate(230.584 164)">Connect</text><rect x="327.5" y="143.5" width="80" height="31" stroke="#2F528F" stroke-width="1.33333" stroke-miterlimit="8" fill="#4472C4"/><text fill="#FFFFFF" font-family="Calibri,Calibri_MSFontService,sans-serif" font-weight="400" font-size="16" transform="translate(351.693 164)">Helo</text><rect x="436.5" y="143.5" width="80" height="31" stroke="#2F528F" stroke-width="1.33333" stroke-miterlimit="8" fill="#4472C4"/><text fill="#FFFFFF" font-family="Calibri,Calibri_MSFontService,sans-serif" font-weight="400" font-size="16" transform="translate(461.717 164)">Mail</text><rect x="545.5" y="143.5" width="80" height="31" stroke="#2F528F" stroke-width="1.33333" stroke-miterlimit="8" fill="#4472C4"/><text fill="#FFFFFF" font-family="Calibri,Calibri_MSFontService,sans-serif" font-weight="400" font-size="16" transform="translate(570.779 164)">Rcpt</text><rect x="655.5" y="143.5" width="80" height="31" stroke="#2F528F" stroke-width="1.33333" stroke-miterlimit="8" fill="#4472C4"/><text fill="#FFFFFF" font-family="Calibri,Calibri_MSFontService,sans-serif" font-weight="400" font-size="16" transform="translate(679.52 164)">Data</text><rect x="764.5" y="143.5" width="80" height="31" stroke="#2F528F" stroke-width="1.33333" stroke-miterlimit="8" fill="#4472C4"/><text fill="#FFFFFF" font-family="Calibri,Calibri_MSFontService,sans-serif" font-weight="400" font-size="16" transform="translate(776.545 164)">DataEnd</text><path d="M293.5 155.25 331 155.25 331 150.5 340.5 160 331 169.5 331 164.75 293.5 164.75Z" stroke="#41719C" stroke-width="1.33333" stroke-miterlimit="8" fill="#5B9BD5" fill-rule="evenodd"/><text fill="#FFFFFF" font-family="Calibri,Calibri_MSFontService,sans-serif" font-weight="400" font-size="8" transform="translate(303.261 162)">Accept</text><path d="M402.5 155.25 440 155.25 440 150.5 449.5 160 440 169.5 440 164.75 402.5 164.75Z" stroke="#41719C" stroke-width="1.33333" stroke-miterlimit="8" fill="#5B9BD5" fill-rule="evenodd"/><text fill="#FFFFFF" font-family="Calibri,Calibri_MSFontService,sans-serif" font-weight="400" font-size="8" transform="translate(412.261 162)">Accept</text><path d="M511.5 155.25 549 155.25 549 150.5 558.5 160 549 169.5 549 164.75 511.5 164.75Z" stroke="#41719C" stroke-width="1.33333" stroke-miterlimit="8" fill="#5B9BD5" fill-rule="evenodd"/><text fill="#FFFFFF" font-family="Calibri,Calibri_MSFontService,sans-serif" font-weight="400" font-size="8" transform="translate(521.261 162)">Accept</text><path d="M620.5 155.25 658 155.25 658 150.5 667.5 160 658 169.5 658 164.75 620.5 164.75Z" stroke="#41719C" stroke-width="1.33333" stroke-miterlimit="8" fill="#5B9BD5" fill-rule="evenodd"/><text fill="#FFFFFF" font-family="Calibri,Calibri_MSFontService,sans-serif" font-weight="400" font-size="8" transform="translate(630.261 162)">Accept</text><path d="M729.5 154 767.5 154 767.5 149.5 776.5 158.5 767.5 167.5 767.5 163 729.5 163Z" stroke="#41719C" stroke-width="1.33333" stroke-miterlimit="8" fill="#5B9BD5" fill-rule="evenodd"/><text fill="#FFFFFF" font-family="Calibri,Calibri_MSFontService,sans-serif" font-weight="400" font-size="8" transform="translate(739.261 160)">Accept</text><path d="M280 148.5 280 119.5 275.5 119.5 284.5 110.5 293.5 119.5 289 119.5 289 148.5Z" stroke="#70AD47" stroke-width="0.666667" stroke-miterlimit="8" fill="url(#fill2)" fill-rule="evenodd"/><path d="M389 149.5 389 119.5 384.5 119.5 393.5 110.5 402.5 119.5 398 119.5 398 149.5Z" stroke="#70AD47" stroke-width="0.666667" stroke-miterlimit="8" fill="url(#fill3)" fill-rule="evenodd"/><path d="M498 149.5 498 119.5 493.5 119.5 502.5 110.5 511.5 119.5 507 119.5 507 149.5Z" stroke="#70AD47" stroke-width="0.666667" stroke-miterlimit="8" fill="url(#fill4)" fill-rule="evenodd"/><path d="M609 149.5 609 119.5 604.5 119.5 613.5 110.5 622.5 119.5 618 119.5 618 149.5Z" stroke="#70AD47" stroke-width="0.666667" stroke-miterlimit="8" fill="url(#fill5)" fill-rule="evenodd"/><path d="M713.25 149.5 713.25 120 708.5 120 718 110.5 727.5 120 722.75 120 722.75 149.5Z" stroke="#70AD47" stroke-width="0.666667" stroke-miterlimit="8" fill="url(#fill6)" fill-rule="evenodd"/><path d="M827 148.5 827 119.5 822.5 119.5 831.5 110.5 840.5 119.5 836 119.5 836 148.5Z" stroke="#70AD47" stroke-width="0.666667" stroke-miterlimit="8" fill="url(#fill7)" fill-rule="evenodd"/><path d="M276.5 212.5C276.5 207.529 280.306 203.5 285 203.5 289.694 203.5 293.5 207.529 293.5 212.5 293.5 217.471 289.694 221.5 285 221.5 280.306 221.5 276.5 217.471 276.5 212.5ZM289.672 215.267C291.069 212.445 290.11 208.917 287.529 207.389 285.92 206.435 283.975 206.455 282.382 207.442ZM280.328 209.733C278.931 212.556 279.891 216.083 282.471 217.611 284.08 218.565 286.025 218.545 287.618 217.558Z" stroke="#000000" stroke-width="0.666667" stroke-miterlimit="8" fill="url(#fill8)" fill-rule="evenodd"/><path d="M390.5 212C390.5 207.306 394.306 203.5 399 203.5 403.694 203.5 407.5 207.306 407.5 212 407.5 216.694 403.694 220.5 399 220.5 394.306 220.5 390.5 216.694 390.5 212ZM403.678 214.519C405.069 211.935 404.102 208.714 401.519 207.323 399.946 206.476 398.054 206.476 396.481 207.323ZM394.323 209.481C392.932 212.065 393.898 215.287 396.481 216.678 398.054 217.524 399.946 217.524 401.519 216.678Z" stroke="#000000" stroke-width="0.666667" stroke-miterlimit="8" fill="url(#fill9)" fill-rule="evenodd"/><path d="M508 195.5C503.306 195.5 499.5 191.694 499.5 187 499.5 182.306 503.306 178.5 508 178.5 512.694 178.5 516.5 182.306 516.5 187 516.5 189.254 515.605 191.416 514.01 193.01L516.5 193.01 516.5 195.5Z" stroke="#AE5A21" stroke-width="1.33333" stroke-miterlimit="8" fill="#ED7D31" fill-rule="evenodd"/><text fill="#FFFFFF" font-family="Calibri,Calibri_MSFontService,sans-serif" font-weight="400" font-size="15" transform="translate(502.64 192)">Q</text><path d="M499.5 212.5C499.5 207.529 503.306 203.5 508 203.5 512.694 203.5 516.5 207.529 516.5 212.5 516.5 217.471 512.694 221.5 508 221.5 503.306 221.5 499.5 217.471 499.5 212.5ZM512.672 215.267C514.069 212.445 513.11 208.917 510.529 207.389 508.92 206.435 506.975 206.455 505.382 207.442ZM503.328 209.733C501.931 212.556 502.891 216.083 505.471 217.611 507.08 218.565 509.025 218.545 510.618 217.558Z" stroke="#000000" stroke-width="0.666667" stroke-miterlimit="8" fill="url(#fill10)" fill-rule="evenodd"/><path d="M617 195.5C612.306 195.5 608.5 191.694 608.5 187 608.5 182.306 612.306 178.5 617 178.5 621.694 178.5 625.5 182.306 625.5 187 625.5 189.254 624.605 191.416 623.01 193.01L625.5 193.01 625.5 195.5Z" stroke="#AE5A21" stroke-width="1.33333" stroke-miterlimit="8" fill="#ED7D31" fill-rule="evenodd"/><text fill="#FFFFFF" font-family="Calibri,Calibri_MSFontService,sans-serif" font-weight="400" font-size="15" transform="translate(611.915 192)">Q</text><path d="M609.5 211.5C609.5 206.529 613.306 202.5 618 202.5 622.694 202.5 626.5 206.529 626.5 211.5 626.5 216.471 622.694 220.5 618 220.5 613.306 220.5 609.5 216.471 609.5 211.5ZM622.672 214.267C624.069 211.445 623.11 207.917 620.529 206.389 618.92 205.435 616.975 205.455 615.382 206.442ZM613.328 208.733C611.931 211.556 612.891 215.083 615.471 216.611 617.08 217.565 619.025 217.545 620.618 216.558Z" stroke="#000000" stroke-width="0.666667" stroke-miterlimit="8" fill="url(#fill11)" fill-rule="evenodd"/><path d="M719.5 211.5C719.5 206.529 723.082 202.5 727.5 202.5 731.918 202.5 735.5 206.529 735.5 211.5 735.5 216.471 731.918 220.5 727.5 220.5 723.082 220.5 719.5 216.471 719.5 211.5ZM731.894 214.363C733.212 211.451 732.313 207.808 729.886 206.227 728.337 205.218 726.46 205.262 724.945 206.343ZM723.106 208.637C721.788 211.549 722.688 215.192 725.114 216.773 726.663 217.782 728.54 217.738 730.055 216.658Z" stroke="#000000" stroke-width="0.666667" stroke-miterlimit="8" fill="url(#fill12)" fill-rule="evenodd"/><rect x="479.5" y="441.5" width="84" height="48" stroke="#507E32" stroke-width="1.33333" stroke-miterlimit="8" fill="#70AD47"/><text fill="#FFFFFF" font-family="Calibri,Calibri_MSFontService,sans-serif" font-weight="400" font-size="14" transform="translate(500.821 470)">Deliver</text><path d="M485.5 532.5C485.5 528.082 508.557 524.5 537 524.5 565.443 524.5 588.5 528.082 588.5 532.5L588.5 564.5C588.5 568.918 565.443 572.5 537 572.5 508.557 572.5 485.5 568.918 485.5 564.5Z" fill="#A5A5A5" fill-rule="evenodd"/><path d="M588.5 532.5C588.5 536.918 565.443 540.5 537 540.5 508.557 540.5 485.5 536.918 485.5 532.5" stroke="#787878" stroke-width="1.33333" stroke-miterlimit="8" fill="none" fill-rule="evenodd"/><path d="M485.5 532.5C485.5 528.082 508.557 524.5 537 524.5 565.443 524.5 588.5 528.082 588.5 532.5L588.5 564.5C588.5 568.918 565.443 572.5 537 572.5 508.557 572.5 485.5 568.918 485.5 564.5Z" stroke="#787878" stroke-width="1.33333" stroke-miterlimit="8" fill="none" fill-rule="evenodd"/><text fill="#FFFFFF" font-family="Calibri,Calibri_MSFontService,sans-serif" font-weight="400" font-size="11" transform="translate(502.323 555)">Deferred queue</text><path d="M496.5 482.5 496.5 494.75C496.5 501.516 491.016 507 484.25 507L469.5 507 469.5 510.5 462.5 503.5 469.5 496.5 469.5 500 484.25 500C487.15 500 489.5 497.65 489.5 494.75L489.5 482.5Z" stroke="#507E32" stroke-width="1.33333" stroke-miterlimit="8" fill="#70AD47" fill-rule="evenodd"/><path d="M537.5 478.5 544.5 485.5 541 485.5 541 530.5 544.5 530.5 537.5 537.5 530.5 530.5 534 530.5 534 485.5 530.5 485.5Z" stroke="#507E32" stroke-width="1.33333" stroke-miterlimit="8" fill="#70AD47" fill-rule="evenodd"/><path d="M746.5 369.5 831.5 369.5 814.5 404.5 763.5 404.5Z" stroke="#AE5A21" stroke-width="1.33333" stroke-miterlimit="8" fill="#ED7D31" fill-rule="evenodd"/><text fill="#FFFFFF" font-family="Calibri,Calibri_MSFontService,sans-serif" font-weight="400" font-size="8" transform="translate(775.991 384)">Manual<tspan font-size="8" x="-3.5" y="10">triggering</tspan></text><path d="M203.5 321 216 308.5 216 314.75 979.5 314.75 979.5 327.25 216 327.25 216 333.5Z" stroke="#BC8C00" stroke-width="1.33333" stroke-miterlimit="8" fill="#FFC000" fill-rule="evenodd"/><text fill="#FFFFFF" font-family="Calibri,Calibri_MSFontService,sans-serif" font-weight="400" font-size="12" transform="translate(566.957 324)">SMTP code</text><path d="M288.5 231.5 288.5 310.5 291.5 310.5 285.5 316.5 279.5 310.5 282.5 310.5 282.5 231.5Z" stroke="#BC8C00" stroke-width="1.33333" stroke-miterlimit="8" fill="#FFC000" fill-rule="evenodd"/><path d="M401.5 228.5 401.5 310.5 404.5 310.5 398.5 316.5 392.5 310.5 395.5 310.5 395.5 228.5Z" stroke="#BC8C00" stroke-width="1.33333" stroke-miterlimit="8" fill="#FFC000" fill-rule="evenodd"/><path d="M511.5 228.5 511.5 310.5 514.5 310.5 508.5 316.5 502.5 310.5 505.5 310.5 505.5 228.5Z" stroke="#BC8C00" stroke-width="1.33333" stroke-miterlimit="8" fill="#FFC000" fill-rule="evenodd"/><path d="M621.25 228.5 621.25 310 624.5 310 618 316.5 611.5 310 614.75 310 614.75 228.5Z" stroke="#BC8C00" stroke-width="1.33333" stroke-miterlimit="8" fill="#FFC000" fill-rule="evenodd"/><path d="M730.5 228.5 730.5 310.5 733.5 310.5 727.5 316.5 721.5 310.5 724.5 310.5 724.5 228.5Z" stroke="#BC8C00" stroke-width="1.33333" stroke-miterlimit="8" fill="#FFC000" fill-rule="evenodd"/><path d="M989.5 258.5C989.5 253.529 993.306 249.5 998 249.5 1002.69 249.5 1006.5 253.529 1006.5 258.5 1006.5 263.471 1002.69 267.5 998 267.5 993.306 267.5 989.5 263.471 989.5 258.5ZM1002.67 261.267C1004.07 258.445 1003.11 254.917 1000.53 253.389 998.92 252.435 996.975 252.455 995.382 253.442ZM993.328 255.733C991.931 258.556 992.891 262.083 995.471 263.611 997.08 264.565 999.025 264.545 1000.62 263.558Z" stroke="#000000" stroke-width="0.666667" stroke-miterlimit="8" fill="url(#fill13)" fill-rule="evenodd"/><path d="M998 242.5C993.306 242.5 989.5 238.471 989.5 233.5 989.5 228.529 993.306 224.5 998 224.5 1002.69 224.5 1006.5 228.529 1006.5 233.5 1006.5 235.887 1005.6 238.176 1004.01 239.864L1006.5 239.864 1006.5 242.5Z" stroke="#AE5A21" stroke-width="1.33333" stroke-miterlimit="8" fill="#ED7D31" fill-rule="evenodd"/><text fill="#FFFFFF" font-family="Calibri,Calibri_MSFontService,sans-serif" font-weight="400" font-size="15" transform="translate(992.978 238)">Q</text><path d="M366.5 567.5C366.5 563.082 389.781 559.5 418.5 559.5 447.219 559.5 470.5 563.082 470.5 567.5L470.5 599.5C470.5 603.918 447.219 607.5 418.5 607.5 389.781 607.5 366.5 603.918 366.5 599.5Z" fill="#A5A5A5" fill-rule="evenodd"/><path d="M470.5 567.5C470.5 571.918 447.219 575.5 418.5 575.5 389.781 575.5 366.5 571.918 366.5 567.5" stroke="#787878" stroke-width="1.33333" stroke-miterlimit="8" fill="none" fill-rule="evenodd"/><path d="M366.5 567.5C366.5 563.082 389.781 559.5 418.5 559.5 447.219 559.5 470.5 563.082 470.5 567.5L470.5 599.5C470.5 603.918 447.219 607.5 418.5 607.5 389.781 607.5 366.5 603.918 366.5 599.5Z" stroke="#787878" stroke-width="1.33333" stroke-miterlimit="8" fill="none" fill-rule="evenodd"/><text fill="#FFFFFF" font-family="Calibri,Calibri_MSFontService,sans-serif" font-weight="400" font-size="11" transform="translate(391.52 591)">Dead queue</text><path d="M503.5 563.5 503.5 575.75C503.5 582.516 498.016 588 491.25 588L476.5 588 476.5 591.5 469.5 584.5 476.5 577.5 476.5 581 491.25 581C494.15 581 496.5 578.65 496.5 575.75L496.5 563.5Z" stroke="#507E32" stroke-width="1.33333" stroke-miterlimit="8" fill="#70AD47" fill-rule="evenodd"/><path d="M970.5 171.5 970.5 312.5 973.5 312.5 967.5 318.5 961.5 312.5 964.5 312.5 964.5 171.5Z" stroke="#C00000" stroke-width="1.33333" stroke-miterlimit="8" fill="#FF0000" fill-rule="evenodd"/><path d="M1072.5 499.9C1072.5 501.226 1077.09 502.3 1082.75 502.3 1088.41 502.3 1093 501.226 1093 499.9 1093 498.575 1097.59 497.5 1103.25 497.5 1108.91 497.5 1113.5 498.575 1113.5 499.9L1113.5 519.1C1113.5 517.775 1108.91 516.7 1103.25 516.7 1097.59 516.7 1093 517.775 1093 519.1 1093 520.426 1088.41 521.5 1082.75 521.5 1077.09 521.5 1072.5 520.426 1072.5 519.1Z" stroke="#333F50" stroke-width="1.33333" stroke-miterlimit="8" fill="#8497B0" fill-rule="evenodd"/><text fill="#FFFFFF" font-family="Calibri,Calibri_MSFontService,sans-serif" font-weight="400" font-size="8" transform="translate(1084.38 511)">JSON</text><path d="M581.5 539.9C581.5 541.226 586.089 542.3 591.75 542.3 597.411 542.3 602 541.226 602 539.9 602 538.575 606.589 537.5 612.25 537.5 617.911 537.5 622.5 538.575 622.5 539.9L622.5 559.1C622.5 557.775 617.911 556.7 612.25 556.7 606.589 556.7 602 557.775 602 559.1 602 560.426 597.411 561.5 591.75 561.5 586.089 561.5 581.5 560.426 581.5 559.1Z" stroke="#333F50" stroke-width="1.33333" stroke-miterlimit="8" fill="#8497B0" fill-rule="evenodd"/><text fill="#FFFFFF" font-family="Calibri,Calibri_MSFontService,sans-serif" font-weight="400" font-size="8" transform="translate(593.168 551)">JSON</text><path d="M334.5 578.8C334.5 580.07 339.089 581.1 344.75 581.1 350.411 581.1 355 580.07 355 578.8 355 577.53 359.589 576.5 365.25 576.5 370.911 576.5 375.5 577.53 375.5 578.8L375.5 597.2C375.5 595.93 370.911 594.9 365.25 594.9 359.589 594.9 355 595.93 355 597.2 355 598.47 350.411 599.5 344.75 599.5 339.089 599.5 334.5 598.47 334.5 597.2Z" stroke="#333F50" stroke-width="1.33333" stroke-miterlimit="8" fill="#8497B0" fill-rule="evenodd"/><text fill="#FFFFFF" font-family="Calibri,Calibri_MSFontService,sans-serif" font-weight="400" font-size="8" transform="translate(346.066 590)">JSON</text><path d="M378.5 504.4C378.5 506.002 383.089 507.3 388.75 507.3 394.411 507.3 399 506.002 399 504.4 399 502.798 403.589 501.5 409.25 501.5 414.911 501.5 419.5 502.798 419.5 504.4L419.5 527.6C419.5 525.998 414.911 524.7 409.25 524.7 403.589 524.7 399 525.998 399 527.6 399 529.202 394.411 530.5 388.75 530.5 383.089 530.5 378.5 529.202 378.5 527.6Z" stroke="#333F50" stroke-width="1.33333" stroke-miterlimit="8" fill="#8497B0" fill-rule="evenodd"/><text fill="#FFFFFF" font-family="Calibri,Calibri_MSFontService,sans-serif" font-weight="400" font-size="8" transform="translate(390.065 518)">MAIL</text><path d="M297.5 488.8C297.5 490.07 302.089 491.1 307.75 491.1 313.411 491.1 318 490.07 318 488.8 318 487.53 322.589 486.5 328.25 486.5 333.911 486.5 338.5 487.53 338.5 488.8L338.5 507.2C338.5 505.93 333.911 504.9 328.25 504.9 322.589 504.9 318 505.93 318 507.2 318 508.47 313.411 509.5 307.75 509.5 302.089 509.5 297.5 508.47 297.5 507.2Z" stroke="#333F50" stroke-width="1.33333" stroke-miterlimit="8" fill="#8497B0" fill-rule="evenodd"/><text fill="#FFFFFF" font-family="Calibri,Calibri_MSFontService,sans-serif" font-weight="400" font-size="8" transform="translate(308.732 500)">MAIL</text><rect x="358.5" y="435.5" width="34" height="54" stroke="#C00000" stroke-width="1.33333" stroke-miterlimit="8" fill="#FF0000"/><text fill="#FFFFFF" font-family="Calibri,Calibri_MSFontService,sans-serif" font-weight="400" font-size="8" transform="matrix(-1.83697e-16 -1 1 -1.83697e-16 372.463 475)">Commit  <tspan font-size="8" x="5" y="10">send</tspan></text><path d="M386.5 452.5 484.5 452.5 484.5 449.5 490.5 455.5 484.5 461.5 484.5 458.5 386.5 458.5Z" stroke="#C00000" stroke-width="1.33333" stroke-miterlimit="8" fill="#FF0000" fill-rule="evenodd"/><path d="M395 462.5 395 466.75 486.5 466.75 486.5 475.25 395 475.25 395 479.5 386.5 471Z" stroke="#507E32" stroke-width="1.33333" stroke-miterlimit="8" fill="#70AD47" fill-rule="evenodd"/><path d="M739.5 260.667C739.5 255.604 761.662 251.5 789 251.5 816.338 251.5 838.5 255.604 838.5 260.667L838.5 297.333C838.5 302.396 816.338 306.5 789 306.5 761.662 306.5 739.5 302.396 739.5 297.333Z" fill="#A5A5A5" fill-rule="evenodd"/><path d="M838.5 260.667C838.5 265.729 816.338 269.833 789 269.833 761.662 269.833 739.5 265.729 739.5 260.667" stroke="#787878" stroke-width="1.33333" stroke-miterlimit="8" fill="none" fill-rule="evenodd"/><path d="M739.5 260.667C739.5 255.604 761.662 251.5 789 251.5 816.338 251.5 838.5 255.604 838.5 260.667L838.5 297.333C838.5 302.396 816.338 306.5 789 306.5 761.662 306.5 739.5 302.396 739.5 297.333Z" stroke="#787878" stroke-width="1.33333" stroke-miterlimit="8" fill="none" fill-rule="evenodd"/><text fill="#FFFFFF" font-family="Calibri,Calibri_MSFontService,sans-serif" font-weight="400" font-size="11" transform="translate(761.491 280)">Quarantines <tspan font-size="11" x="10.9133" y="13">queues</tspan></text><path d="M789.167 404.5 789.167 409.833 787.833 409.833 787.833 404.5ZM789.167 413.833 789.167 419.167 787.833 419.167 787.833 413.833ZM789.167 423.167 789.167 428.5 787.833 428.5 787.833 423.167ZM789.167 432.5 789.167 437.833 787.833 437.833 787.833 432.5ZM789.167 441.833 789.167 447.167 787.833 447.167 787.833 441.833ZM789.167 451.167 789.167 454.544 787.833 454.544 787.833 451.167ZM792.5 453.21 788.5 461.21 784.5 453.21Z" fill="#ED7D31"/><path d="M815.5 287.4C815.5 288.449 819.641 289.3 824.75 289.3 829.859 289.3 834 288.449 834 287.4 834 286.351 838.141 285.5 843.25 285.5 848.359 285.5 852.5 286.351 852.5 287.4L852.5 302.6C852.5 301.551 848.359 300.7 843.25 300.7 838.141 300.7 834 301.551 834 302.6 834 303.649 829.859 304.5 824.75 304.5 819.641 304.5 815.5 303.649 815.5 302.6Z" stroke="#333F50" stroke-width="1.33333" stroke-miterlimit="8" fill="#8497B0" fill-rule="evenodd"/><text fill="#FFFFFF" font-family="Calibri,Calibri_MSFontService,sans-serif" font-weight="400" font-size="8" transform="translate(825.211 297)">JSON</text><rect x="1212.5" y="219.5" width="41" height="247" stroke="#385723" stroke-width="1.33333" stroke-miterlimit="8" fill="#548235"/><text fill="#FFFFFF" font-family="Calibri,Calibri_MSFontService,sans-serif" font-weight="400" font-size="24" transform="matrix(6.12323e-17 1 -1 6.12323e-17 1225.09 280)">postq<tspan font-size="24" x="60" y="3.67394e-15">thread</tspan></text><rect x="334.5" y="639.5" width="244" height="41" stroke="#507E32" stroke-width="1.33333" stroke-miterlimit="8" fill="#70AD47"/><text fill="#FFFFFF" font-family="Calibri,Calibri_MSFontService,sans-serif" font-weight="400" font-size="24" transform="translate(382.178 667)">vdeliver<tspan font-size="24" x="82.7" y="0">thread </tspan></text><path d="M1015.5 221.5 1037.83 221.5 1037.83 221.5 1071.33 221.5 1149.5 221.5 1149.5 234.333 1149.5 234.333 1149.5 239.833 1149.5 243.5 1071.33 243.5 1081.48 243.5 1037.83 243.5 1015.5 243.5 1015.5 239.833 1015.5 234.333 1015.5 234.333Z" stroke="#000000" stroke-width="1.33333" stroke-miterlimit="8" fill-rule="evenodd"/><text fill="#FFFFFF" font-family="Calibri,Calibri_MSFontService,sans-serif" font-weight="400" font-size="9" transform="translate(1045.86 235)">Postqueue<tspan font-size="9" x="42.6667" y="0">filtering</tspan></text><path d="M1084.46 243 1084.46 450.32 964 450.32 964 446.32 1082.46 446.32 1080.46 448.32 1080.46 243ZM966 454.32 954 448.32 966 442.32Z" fill="#548235"/><path d="M0-1.33333 71.4817-1.33333 71.4817 58.7217 68.815 58.7217 68.815 0 70.1483 1.33333 0 1.33333ZM74.1483 57.3883 70.1483 65.3883 66.1483 57.3883Z" fill="#ED7D31" transform="matrix(-1 1.22465e-16 1.22465e-16 1 858.648 186.5)"/><path d="M867 194.5C862.306 194.5 858.5 190.694 858.5 186 858.5 181.306 862.306 177.5 867 177.5 871.694 177.5 875.5 181.306 875.5 186 875.5 188.254 874.605 190.416 873.01 192.01L875.5 192.01 875.5 194.5Z" stroke="#AE5A21" stroke-width="1.33333" stroke-miterlimit="8" fill="#ED7D31" fill-rule="evenodd"/><text fill="#FFFFFF" font-family="Calibri,Calibri_MSFontService,sans-serif" font-weight="400" font-size="15" transform="translate(861.998 191)">Q</text><path d="M859.5 210.5C859.5 205.529 863.306 201.5 868 201.5 872.694 201.5 876.5 205.529 876.5 210.5 876.5 215.471 872.694 219.5 868 219.5 863.306 219.5 859.5 215.471 859.5 210.5ZM872.672 213.267C874.069 210.445 873.11 206.917 870.529 205.389 868.92 204.435 866.975 204.455 865.382 205.442ZM863.328 207.733C861.931 210.556 862.891 214.083 865.471 215.611 867.08 216.565 869.025 216.545 870.618 215.558Z" stroke="#000000" stroke-width="0.666667" stroke-miterlimit="8" fill="url(#fill14)" fill-rule="evenodd"/><rect x="863.5" y="434.5" width="91" height="28" stroke="#C00000" stroke-width="1.33333" stroke-miterlimit="8" fill="#FF0000"/><text fill="#FFFFFF" font-family="Calibri,Calibri_MSFontService,sans-serif" font-weight="400" font-size="8" transform="translate(885.873 450)">Commit write</text><path d="M837.5 155.25 877 155.25 877 150.5 886.5 160 877 169.5 877 164.75 837.5 164.75Z" stroke="#41719C" stroke-width="1.33333" stroke-miterlimit="8" fill="#5B9BD5" fill-rule="evenodd"/><text fill="#FFFFFF" font-family="Calibri,Calibri_MSFontService,sans-serif" font-weight="400" font-size="8" transform="translate(848.365 162)">Accept</text><path d="M933.5 112.5 933.5 431.5 938.5 431.5 928.5 441.5 918.5 431.5 923.5 431.5 923.5 112.5Z" stroke="#70AD47" stroke-width="0.666667" stroke-miterlimit="8" fill="url(#fill15)" fill-rule="evenodd"/><text font-family="Calibri,Calibri_MSFontService,sans-serif" font-weight="400" font-size="9" transform="matrix(6.12323e-17 1 -1 6.12323e-17 924.412 249)">Force Accept</text><path d="M905.5 155.25 945 155.25 945 150.5 954.5 160 945 169.5 945 164.75 905.5 164.75Z" stroke="#41719C" stroke-width="1.33333" stroke-miterlimit="8" fill="#5B9BD5" fill-rule="evenodd"/><text fill="#FFFFFF" font-family="Calibri,Calibri_MSFontService,sans-serif" font-weight="400" font-size="8" transform="translate(915.72 162)">Accept</text><path d="M893.25 148.5 893.25 119 888.5 119 898 109.5 907.5 119 902.75 119 902.75 148.5Z" stroke="#70AD47" stroke-width="0.666667" stroke-miterlimit="8" fill="url(#fill16)" fill-rule="evenodd"/><path d="M911.5 126.5 911.5 163.833 911.5 163.833 911.5 179.833 911.5 190.5 896.333 190.5 896.333 190.5 889.833 190.5 885.5 190.5 885.5 179.833 885.5 158.709 885.5 163.833 885.5 126.5 889.833 126.5 896.333 126.5 896.333 126.5Z" stroke="#000000" stroke-width="1.33333" stroke-miterlimit="8" fill-rule="evenodd"/><text fill="#FFFFFF" font-family="Calibri,Calibri_MSFontService,sans-serif" font-weight="400" font-size="9" transform="matrix(6.12323e-17 1 -1 6.12323e-17 900.07 140)">Prequeue<tspan font-size="9" x="3" y="11">filtering</tspan></text><text font-family="Calibri,Calibri_MSFontService,sans-serif" font-weight="400" font-size="11" transform="translate(297.843 216)">Deny</text><path d="M887.5 60.8334 892.833 60.8334 892.833 62.1667 887.5 62.1667ZM896.833 60.8334 902.167 60.8334 902.167 62.1667 896.833 62.1667ZM906.167 60.8334 911.5 60.8334 911.5 62.1667 906.167 62.1667ZM915.5 60.8334 920.833 60.8334 920.833 62.1667 915.5 62.1667ZM924.833 60.8334 930.167 60.8334 930.167 62.1667 924.833 62.1667ZM934.167 60.8334 939.5 60.8334 939.5 62.1667 934.167 62.1667ZM943.5 60.8334 948.833 60.8334 948.833 62.1667 943.5 62.1667ZM952.833 60.8334 958.167 60.8334 958.167 62.1667 952.833 62.1667ZM962.167 60.8334 967.5 60.8334 967.5 62.1667 962.167 62.1667ZM971.5 60.8334 976.833 60.8334 976.833 62.1667 971.5 62.1667ZM980.833 60.8334 986.167 60.8334 986.167 62.1667 980.833 62.1667ZM990.167 60.8334 995.5 60.8334 995.5 62.1667 990.167 62.1667ZM999.5 60.8334 1004.83 60.8334 1004.83 62.1667 999.5 62.1667ZM1008.83 60.8334 1014.17 60.8334 1014.17 62.1667 1008.83 62.1667ZM1018.17 60.8334 1023.5 60.8334 1023.5 62.1667 1018.17 62.1667ZM1027.5 60.8334 1032.83 60.8334 1032.83 62.1667 1027.5 62.1667ZM1036.83 60.8334 1042.17 60.8334 1042.17 62.1667 1036.83 62.1667ZM1046.17 60.8334 1051.5 60.8334 1051.5 62.1667 1046.17 62.1667ZM1055.5 60.8334 1060.83 60.8334 1060.83 62.1667 1055.5 62.1667ZM1064.83 60.8334 1070.17 60.8334 1070.17 62.1667 1064.83 62.1667ZM1074.17 60.8334 1079.5 60.8334 1079.5 62.1667 1074.17 62.1667ZM1083.5 60.8334 1088.83 60.8334 1088.83 62.1667 1083.5 62.1667ZM1092.83 60.8334 1098.17 60.8334 1098.17 62.1667 1092.83 62.1667ZM1102.17 60.8334 1107.5 60.8334 1107.5 62.1667 1102.17 62.1667ZM1111.5 60.8334 1116.83 60.8334 1116.83 62.1667 1111.5 62.1667ZM1120.83 60.8334 1126.17 60.8334 1126.17 62.1667 1120.83 62.1667ZM1130.17 60.8334 1135.5 60.8334 1135.5 62.1667 1130.17 62.1667ZM1139.5 60.8334 1144.83 60.8334 1144.83 62.1667 1139.5 62.1667ZM1148.83 60.8334 1154.17 60.8334 1154.17 62.1667 1148.83 62.1667ZM1158.17 60.8334 1163.5 60.8334 1163.5 62.1667 1158.17 62.1667ZM1167.5 60.8334 1172.83 60.8334 1172.83 62.1667 1167.5 62.1667ZM1176.83 60.8334 1182.17 60.8334 1182.17 62.1667 1176.83 62.1667ZM1186.17 60.8334 1191.5 60.8334 1191.5 62.1667 1186.17 62.1667ZM1195.5 60.8334 1200.83 60.8334 1200.83 62.1667 1195.5 62.1667ZM1204.83 60.8334 1210.17 60.8334 1210.17 62.1667 1204.83 62.1667ZM1214.17 60.8334 1219.5 60.8334 1219.5 62.1667 1214.17 62.1667ZM1223.5 60.8334 1228.83 60.8334 1228.83 62.1667 1223.5 62.1667ZM1233.1 61.9033 1233.1 67.2366 1231.76 67.2366 1231.76 61.9033ZM1233.1 71.2366 1233.1 76.57 1231.76 76.57 1231.76 71.2366ZM1233.1 80.57 1233.1 85.9033 1231.76 85.9033 1231.76 80.57ZM1233.1 89.9033 1233.1 95.2366 1231.76 95.2366 1231.76 89.9033ZM1233.1 99.2366 1233.1 104.57 1231.76 104.57 1231.76 99.2366ZM1233.1 108.57 1233.1 113.903 1231.76 113.903 1231.76 108.57ZM1233.1 117.903 1233.1 123.237 1231.76 123.237 1231.76 117.903ZM1233.1 127.237 1233.1 132.57 1231.76 132.57 1231.76 127.237ZM1236.43 133.746 1232.43 141.746 1228.43 133.746Z" fill="#4472C4"/><path d="M1212.5 141.5 1252.5 141.5 1252.5 178.3 1232.5 187.5 1212.5 178.3Z" stroke="#385723" stroke-width="1.33333" stroke-miterlimit="8" fill="#548235" fill-rule="evenodd"/><text fill="#FFFFFF" font-family="Calibri,Calibri_MSFontService,sans-serif" font-weight="400" font-size="11" transform="translate(1222.47 163)">FIFO</text><path d="M1233.28 187.5 1233.28 205.383 1082.5 205.383 1083.17 204.716 1083.17 215.265 1081.83 215.265 1081.83 204.049 1232.62 204.049 1231.95 204.716 1231.95 187.5ZM1086.5 213.932 1082.5 221.932 1078.5 213.932Z" fill="#548235"/><path d="M746.5 583.5 746.5 647.5 707.3 647.5 697.5 615.5 707.3 583.5Z" stroke="#507E32" stroke-width="1.33333" stroke-miterlimit="8" fill="#70AD47" fill-rule="evenodd"/><text fill="#FFFFFF" font-family="Calibri,Calibri_MSFontService,sans-serif" font-weight="400" font-size="11" transform="matrix(6.12323e-17 1 -1 6.12323e-17 722.528 605)">FIFO</text><path d="M1234.11 466.5 1234.11 471.833 1232.78 471.833 1232.78 466.5ZM1234.11 475.833 1234.11 481.167 1232.78 481.167 1232.78 475.833ZM1234.11 485.167 1234.11 490.5 1232.78 490.5 1232.78 485.167ZM1234.11 494.5 1234.11 499.833 1232.78 499.833 1232.78 494.5ZM1234.11 503.833 1234.11 509.167 1232.78 509.167 1232.78 503.833ZM1234.11 513.167 1234.11 518.5 1232.78 518.5 1232.78 513.167ZM1234.11 522.5 1234.11 527.833 1232.78 527.833 1232.78 522.5ZM1234.11 531.833 1234.11 537.167 1232.78 537.167 1232.78 531.833ZM1234.11 541.167 1234.11 546.5 1232.78 546.5 1232.78 541.167ZM1234.11 550.5 1234.11 555.833 1232.78 555.833 1232.78 550.5ZM1234.11 559.833 1234.11 565.167 1232.78 565.167 1232.78 559.833ZM1234.11 569.167 1234.11 574.5 1232.78 574.5 1232.78 569.167ZM1234.11 578.5 1234.11 583.833 1232.78 583.833 1232.78 578.5ZM1234.11 587.833 1234.11 593.167 1232.78 593.167 1232.78 587.833ZM1234.11 597.167 1234.11 602.5 1232.78 602.5 1232.78 597.167ZM1234.11 606.5 1234.11 611.833 1232.78 611.833 1232.78 606.5ZM1234.11 615.833 1234.11 621.167 1232.78 621.167 1232.78 615.833ZM1234.11 625.167 1234.11 630.5 1232.78 630.5 1232.78 625.167ZM1231.11 632.829 1225.78 632.829 1225.78 631.495 1231.11 631.495ZM1221.78 632.829 1216.44 632.829 1216.44 631.495 1221.78 631.495ZM1212.44 632.829 1207.11 632.829 1207.11 631.495 1212.44 631.495ZM1203.11 632.829 1197.78 632.829 1197.78 631.495 1203.11 631.495ZM1193.78 632.829 1188.44 632.829 1188.44 631.495 1193.78 631.495ZM1184.44 632.829 1179.11 632.829 1179.11 631.495 1184.44 631.495ZM1175.11 632.829 1169.78 632.829 1169.78 631.495 1175.11 631.495ZM1165.78 632.829 1160.44 632.829 1160.44 631.495 1165.78 631.495ZM1156.44 632.829 1151.11 632.829 1151.11 631.495 1156.44 631.495ZM1147.11 632.829 1141.78 632.829 1141.78 631.495 1147.11 631.495ZM1137.78 632.829 1132.44 632.829 1132.44 631.495 1137.78 631.495ZM1128.44 632.829 1123.11 632.829 1123.11 631.495 1128.44 631.495ZM1119.11 632.829 1113.78 632.829 1113.78 631.495 1119.11 631.495ZM1109.78 632.829 1104.44 632.829 1104.44 631.495 1109.78 631.495ZM1100.44 632.829 1095.11 632.829 1095.11 631.495 1100.44 631.495ZM1091.11 632.829 1085.78 632.829 1085.78 631.495 1091.11 631.495ZM1081.78 632.829 1076.44 632.829 1076.44 631.495 1081.78 631.495ZM1072.44 632.829 1067.11 632.829 1067.11 631.495 1072.44 631.495ZM1063.11 632.829 1057.78 632.829 1057.78 631.495 1063.11 631.495ZM1053.78 632.829 1048.44 632.829 1048.44 631.495 1053.78 631.495ZM1044.44 632.829 1039.11 632.829 1039.11 631.495 1044.44 631.495ZM1035.11 632.829 1029.78 632.829 1029.78 631.495 1035.11 631.495ZM1025.78 632.829 1020.44 632.829 1020.44 631.495 1025.78 631.495ZM1016.44 632.829 1011.11 632.829 1011.11 631.495 1016.44 631.495ZM1007.11 632.829 1001.78 632.829 1001.78 631.495 1007.11 631.495ZM997.775 632.829 992.442 632.829 992.442 631.495 997.775 631.495ZM988.442 632.829 983.108 632.829 983.108 631.495 988.442 631.495ZM979.108 632.829 973.775 632.829 973.775 631.495 979.108 631.495ZM969.775 632.829 964.442 632.829 964.442 631.495 969.775 631.495ZM960.442 632.829 955.108 632.829 955.108 631.495 960.442 631.495ZM951.108 632.829 945.775 632.829 945.775 631.495 951.108 631.495ZM941.775 632.829 936.442 632.829 936.442 631.495 941.775 631.495ZM932.442 632.829 927.108 632.829 927.108 631.495 932.442 631.495ZM923.108 632.829 917.775 632.829 917.775 631.495 923.108 631.495ZM913.775 632.829 908.442 632.829 908.442 631.495 913.775 631.495ZM904.442 632.829 899.108 632.829 899.108 631.495 904.442 631.495ZM895.108 632.829 889.775 632.829 889.775 631.495 895.108 631.495ZM885.775 632.829 880.442 632.829 880.442 631.495 885.775 631.495ZM876.442 632.829 871.108 632.829 871.108 631.495 876.442 631.495ZM867.108 632.829 861.775 632.829 861.775 631.495 867.108 631.495ZM857.775 632.829 852.442 632.829 852.442 631.495 857.775 631.495ZM848.442 632.829 843.108 632.829 843.108 631.495 848.442 631.495ZM839.108 632.829 833.775 632.829 833.775 631.495 839.108 631.495ZM829.775 632.829 824.442 632.829 824.442 631.495 829.775 631.495ZM820.442 632.829 815.108 632.829 815.108 631.495 820.442 631.495ZM811.108 632.829 805.775 632.829 805.775 631.495 811.108 631.495ZM801.775 632.829 796.442 632.829 796.442 631.495 801.775 631.495ZM792.442 632.829 787.108 632.829 787.108 631.495 792.442 631.495ZM783.108 632.829 777.775 632.829 777.775 631.495 783.108 631.495ZM773.775 632.829 768.442 632.829 768.442 631.495 773.775 631.495ZM764.442 632.829 759.108 632.829 759.108 631.495 764.442 631.495ZM755.108 632.829 753.167 632.829 753.167 631.495 755.108 631.495ZM754.5 636.162 746.5 632.162 754.5 628.162Z" fill="#548235"/><path d="M697.308 615.789 629.737 615.789 629.737 465.5 630.404 466.167 570.167 466.167 570.167 464.833 631.07 464.833 631.07 615.123 630.404 614.456 697.308 614.456ZM571.5 469.5 563.5 465.5 571.5 461.5Z" fill="#548235"/><path d="M443.5 131.7C443.5 132.915 448.873 133.9 455.5 133.9 462.127 133.9 467.5 132.915 467.5 131.7 467.5 130.485 472.873 129.5 479.5 129.5 486.127 129.5 491.5 130.485 491.5 131.7L491.5 149.3C491.5 148.085 486.127 147.1 479.5 147.1 472.873 147.1 467.5 148.085 467.5 149.3 467.5 150.515 462.127 151.5 455.5 151.5 448.873 151.5 443.5 150.515 443.5 149.3Z" stroke="#333F50" stroke-width="1.33333" stroke-miterlimit="8" fill="#8497B0" fill-rule="evenodd"/><text fill="#FFFFFF" font-family="Calibri,Calibri_MSFontService,sans-serif" font-weight="400" font-size="8" transform="translate(453.742 142)">MSG_ID</text><path d="M1158.5 51.6001C1158.5 52.7598 1163.76 53.7001 1170.25 53.7001 1176.74 53.7001 1182 52.7598 1182 51.6001 1182 50.4403 1187.26 49.5001 1193.75 49.5001 1200.24 49.5001 1205.5 50.4403 1205.5 51.6001L1205.5 68.4001C1205.5 67.2402 1200.24 66.3 1193.75 66.3 1187.26 66.3 1182 67.2402 1182 68.4001 1182 69.5599 1176.74 70.5001 1170.25 70.5001 1163.76 70.5001 1158.5 69.5599 1158.5 68.4001Z" stroke="#333F50" stroke-width="1.33333" stroke-miterlimit="8" fill="#8497B0" fill-rule="evenodd"/><text fill="#FFFFFF" font-family="Calibri,Calibri_MSFontService,sans-serif" font-weight="400" font-size="8" transform="translate(1167.92 62)">MSG_ID</text><path d="M1049.5 623.6C1049.5 624.76 1054.76 625.7 1061.25 625.7 1067.74 625.7 1073 624.76 1073 623.6 1073 622.44 1078.26 621.5 1084.75 621.5 1091.24 621.5 1096.5 622.44 1096.5 623.6L1096.5 640.4C1096.5 639.24 1091.24 638.3 1084.75 638.3 1078.26 638.3 1073 639.24 1073 640.4 1073 641.56 1067.74 642.5 1061.25 642.5 1054.76 642.5 1049.5 641.56 1049.5 640.4Z" stroke="#333F50" stroke-width="1.33333" stroke-miterlimit="8" fill="#8497B0" fill-rule="evenodd"/><text fill="#FFFFFF" font-family="Calibri,Calibri_MSFontService,sans-serif" font-weight="400" font-size="8" transform="translate(1059.01 634)">MSG_ID</text><path d="M132.5 148.25 186 148.25 186 138.5 205.5 158 186 177.5 186 167.75 132.5 167.75Z" stroke="#41719C" stroke-width="1.33333" stroke-miterlimit="8" fill="#5B9BD5" fill-rule="evenodd"/><text fill="#FFFFFF" font-family="Calibri,Calibri_MSFontService,sans-serif" font-weight="400" font-size="8" transform="translate(148.795 155)">Incoming <tspan font-size="8" x="-3.08665" y="10">connection</tspan></text><path d="M924.75 427.5 924.75 346 921.5 346 928 339.5 934.5 346 931.25 346 931.25 427.5Z" stroke="#BC8C00" stroke-width="1.33333" stroke-miterlimit="8" fill="#FFC000" fill-rule="evenodd"/><text font-family="Calibri,Calibri_MSFontService,sans-serif" font-weight="400" font-size="24" transform="translate(888.404 217)">P<tspan font-size="24" x="122.865" y="50">P</tspan></text></g></svg>